<?xml version="1.0" encoding="utf-8"?>
<!-- Generator: Adobe Illustrator 19.2.1, SVG Export Plug-In . SVG Version: 6.00 Build 0)  -->
<svg version="1.1" id="Layer_1" xmlns="http://www.w3.org/2000/svg" xmlns:xlink="http://www.w3.org/1999/xlink" x="0px" y="0px"
	 viewBox="0 0 92.5 44.6" style="enable-background:new 0 0 92.5 44.6;" xml:space="preserve">
<style type="text/css">
	.st0{fill:#FFFFFF;}
</style>
<g>
	<path class="st0" d="M68.3,43.9c-0.7-0.2-1.4-0.3-2-0.5c-0.5-0.1-0.9-0.3-1.3-0.6c-0.2-0.1-0.4-0.5-0.3-0.7c0.3-1.8,0.6-3.5,1-5.3
		c0-0.2,0.3-0.4,0.6-0.5c0.2-0.1,0.4,0,0.7,0c0.5-0.1,0.7,0.1,0.8,0.6c0.2,1,0.4,2,0.6,3c0.3,1.1,0.8,1.5,1.9,1.5
		c1.7,0,3.1-0.7,4.4-1.8c1.3-1.2,2.3-2.6,3.1-4.2c0.1-0.2,0.1-0.5,0-0.8c-2.6-6.4-5.2-12.8-7.8-19.2c-0.3-0.8-0.7-1.4-1.6-1.7
		c-1.2-0.4-1.2-0.4-1-1.7c3.6,0,7.2,0,11,0c0,0.3,0.1,0.6,0,1c0,0.2-0.3,0.4-0.4,0.5c-0.5,0.2-1,0.2-1.5,0.4c-1,0.3-1.4,1.1-1,2
		c1.6,4.5,3.3,8.9,4.9,13.3c0,0.1,0.1,0.2,0.3,0.3c0.2-0.4,0.3-0.6,0.4-0.9c1.7-4,3.4-8.1,5.1-12.2c0.5-1.3,0.2-2.1-1.1-2.6
		c-0.2-0.1-0.3-0.1-0.5-0.2c-1.2-0.4-1.2-0.4-1-1.7c1.2,0,2.5,0,3.7,0c1.4,0,2.8-0.1,4.2-0.1c0.3,0,0.8,0.2,0.8,0.3
		c0.1,0.5,0.3,1.1-0.4,1.3c-2,0.4-2.8,1.9-3.5,3.6c-2.3,5.6-4.6,11.1-7,16.6c-1.2,2.8-2.6,5.4-4.9,7.5c-1.5,1.4-3.2,2.4-5.3,2.6
		C70.7,43.8,69.2,44.1,68.3,43.9z"/>
	<path class="st0" d="M29.4,24.2c-0.4,3.2-0.8,6.4-1.1,9.6c-1.1,0-2.2,0-3.2,0c-7.2,0-14.4,0-21.5,0c-0.8,0-1.6,0-2.3,0.1
		c-0.5,0-0.7-0.1-0.7-0.7c0-1.1,0-1.1,1-1.3c0.6-0.1,1.3-0.2,1.9-0.4C4.6,31.2,5,30.6,5,29.4c0-6.5,0.1-13,0.1-19.6
		C5.1,8.3,5,6.7,5,5.2c0-1.2-0.5-1.7-1.7-2C2.6,3,1.9,2.9,1.1,2.7c-1-0.2-0.6-0.9-0.6-1.4c0-0.6,0.4-0.5,0.8-0.5
		C8.2,0.9,15.1,1,22,1c1.6,0,3.3-0.3,4.9-0.4c0.3,0,0.6,0,1,0c-0.2,3.1-0.4,6.1-0.6,9.3c-0.4,0-0.7,0-1,0c-0.5,0-0.7-0.1-0.8-0.6
		c-0.3-1.2-0.6-2.4-1-3.5C24.2,5,23.6,4.3,23,3.7c-0.4-0.4-1.1-0.5-1.6-0.5c-3.4,0-6.7,0-10.1,0c-0.9,0-1.1,0.2-1.1,1.1
		c0,3.7,0,7.5,0,11.2c0,0.5,0,0.8,0.7,0.8c2.2-0.1,4.4-0.2,6.7-0.3c1,0,1.6-0.6,1.8-1.6c0.2-0.8,0.4-1.5,0.5-2.3
		c0.1-0.7,0.5-1,1.2-0.9c0.3,0,0.6,0,0.8,0.1c0,3.9,0,7.8,0,11.8c-0.4,0-0.8,0-1.2,0c-0.5,0-0.7-0.2-0.8-0.6
		c-0.1-0.7-0.3-1.4-0.5-2.1c-0.4-1.3-1.1-1.9-2.5-1.9c-2-0.1-4-0.1-6-0.2c-0.6,0-0.7,0.2-0.7,0.7c0,3.2,0,6.5,0,9.7
		c0,1.7,0.9,2.8,2.7,2.8c3.1,0.1,6.2,0.1,9.2,0c1.9-0.1,3.2-1.3,3.9-3c0.5-1.1,1-2.2,1.5-3.3C28,24,28,24,29.4,24.2z"/>
	<path class="st0" d="M56.7,34.2c-2.1,0-4.1-0.4-6.1-1c-0.5-0.1-0.6-0.4-0.6-0.9c0-1.6,0-3.2,0-4.8c0-0.3,0.2-0.8,0.3-0.8
		c0.5,0,1.2-0.3,1.4,0.5c0.3,0.9,0.6,1.7,1,2.5c1.1,2.7,4.9,3.8,7.2,2.1c1.7-1.3,1.8-4.1-0.1-5.5c-0.8-0.6-1.7-1.1-2.7-1.6
		c-1.3-0.6-2.6-1.2-3.8-1.8c-1.5-0.8-2.7-1.9-3.1-3.6c-0.9-3.9,0.8-6.8,4.9-7.8c2.9-0.6,5.7-0.2,8.5,0.4c0.4,0.1,0.6,0.3,0.6,0.7
		c-0.1,1.5-0.3,2.9-0.4,4.4c0,0.6-0.4,0.7-0.9,0.7c-0.4,0-0.8,0.1-1-0.5c-0.2-0.7-0.5-1.4-0.7-2.1c-0.3-1.3-1.1-1.9-2.4-2.1
		c-1.1-0.2-2.3-0.2-3.4,0.2c-1.9,0.7-2.6,2.9-1.3,4.5c0.7,0.8,1.7,1.4,2.7,1.9c1.3,0.7,2.7,1.3,4.1,2c1.8,0.9,3.3,2.1,3.8,4.2
		c0.8,3.3-0.4,6.1-3.7,7.5C59.8,34.1,58.3,34.3,56.7,34.2z"/>
	<path class="st0" d="M34.5,14.6c-1.2,0-2.3,0-3.4,0c-0.4,0-0.6-0.1-0.6-0.5c0.1-0.4-0.3-1,0.4-1.1c3.4-0.6,5.1-3,6-6.1
		c0.1-0.3,0.2-0.7,0.2-1c0-0.5,0.3-0.6,0.8-0.6c1.1,0,1.1,0,1.1,1.1c0,1.9,0,3.8,0,5.7c2.4,0,4.6,0,7,0c-0.1,0.9-0.2,1.8-0.3,2.8
		c-2.3-0.2-4.4-0.3-6.7-0.5c0,0.3-0.1,0.5-0.1,0.6c0,4.1,0,8.3,0,12.4c0,0.8,0.2,1.6,0.4,2.3c0.5,1.5,1.8,2.1,3.3,1.8
		c1.3-0.2,1.6-0.4,3.1-1.7c1,0.9,1,1.2,0.2,2.1c-1.2,1.5-2.9,2.1-4.8,2.2c-1,0.1-2,0-2.9-0.2c-2.5-0.6-3.9-2.6-4-5.4
		c0-4.4,0-8.7,0-13.1C34.5,15.3,34.5,15,34.5,14.6z"/>
</g>
</svg>
