<?xml version="1.0" encoding="utf-8"?>
<!-- Generator: Adobe Illustrator 19.2.1, SVG Export Plug-In . SVG Version: 6.00 Build 0)  -->
<svg version="1.1" id="Layer_1" xmlns="http://www.w3.org/2000/svg" xmlns:xlink="http://www.w3.org/1999/xlink" x="0px" y="0px"
	 viewBox="0 0 122.7 25.2" style="enable-background:new 0 0 122.7 25.2;" xml:space="preserve">
<style type="text/css">
	.st0{fill:#FFFFFF;}
</style>
<g>
	<path class="st0" d="M62.9,0.6c0,2.7,0,5.3,0,8c1-0.2,1.8-0.4,2.7-0.5c1.4-0.1,2.9,0,4.3,0.4c1.3,0.4,2.2,1.3,2.5,2.7
		c0.2,0.9,0.3,1.7,0.3,2.6c0,2.1,0,4.1-0.1,6.2c-0.2,2.6-1.8,4.1-4.3,4.6s-5,0.4-7.5,0.1c-0.7-0.1-1.3-0.2-1.9-0.3
		c-0.5-0.1-0.8-0.3-0.8-0.9c0-3.8,0-7.7,0-11.5c0-3.3,0-6.6,0-9.8c0-0.6,0.2-0.8,0.8-0.9C60.1,1.1,61.4,0.9,62.9,0.6z M62.9,16.8
		c0,1.2,0,2.3,0,3.5c0,0.5,0.2,0.7,0.6,0.7c0.8,0,1.7,0,2.5-0.1c1.1-0.2,1.8-1,1.8-2.1c0-1.6,0-3.2,0-4.7c0-1-0.5-1.6-1.5-1.8
		c-1-0.3-1.9,0-2.8,0.4c-0.4,0.2-0.6,0.4-0.6,0.9C62.9,14.6,62.9,15.7,62.9,16.8z"/>
	<path class="st0" d="M121.7,24.8c-1.8,0-2.8,0-4.4,0c-0.2,0-0.5-0.3-0.6-0.5c-1.3-2.1-2.5-4.2-3.8-6.2c-0.2-0.3-0.4-0.5-0.6-0.8
		c-0.1,0-0.2,0-0.3,0c0,0.2,0,0.5,0,0.7c0,2.1,0,4.1,0,6.2c0,0.5-0.1,0.7-0.7,0.7c-1.2,0-2.3,0-3.5,0c-0.7,0-0.7-0.3-0.7-0.8
		c0-5.8,0-11.5,0-17.3c0-1.5,0-3.1,0-4.6c0-0.5,0.1-0.7,0.6-0.8c1.4-0.2,2.8-0.5,4.3-0.7c0,5,0,9.9,0,14.8c0,0.1,0.1,0.1,0.2,0.1
		c0.2-0.2,3.1-4.5,4.2-6.5c0.3-0.5,0.7-0.7,1.2-0.7c1.2,0,2.4,0,3.6,0c0.2,0,0.5,0,0.8,0.1c-0.2,0.3-0.3,0.5-0.4,0.7
		c-1.4,2.2-2.7,4.3-4.1,6.5c-0.4,0.6-0.4,1,0,1.6c1.4,2.2,3,5,4.4,7.2C122,24.6,122,24.8,121.7,24.8z"/>
	<path class="st0" d="M55.5,20.5c0,1.2,0,2.4,0,3.5c0,0.1-0.3,0.4-0.5,0.4c-2.9,0.5-5.7,0.9-8.6,0.2c-2.8-0.6-4.5-2.7-4.6-5.5
		c-0.1-1.9-0.1-3.7,0-5.6c0.1-2.6,1.6-4.4,4.1-5c2-0.5,4-0.5,6,0c2.4,0.7,3.8,2.4,3.9,4.9c0.1,1.3,0,2.6,0.1,3.9
		c0,0.5-0.2,0.7-0.7,0.7c-2.6,0-5.2,0-7.7,0c-0.9,0-1,0.1-0.9,1.1c0.2,1.3,0.8,2,2.1,1.9c2.1,0,4.2-0.2,6.2-0.4
		C55.1,20.6,55.3,20.5,55.5,20.5z M48.8,14.8L48.8,14.8c0.6,0,1.2,0.1,1.7,0c0.2,0,0.6-0.3,0.6-0.5c0.1-0.8-0.1-1.7-0.9-2.2
		c-0.9-0.5-1.8-0.5-2.7,0c-0.8,0.5-0.9,1.3-1,2.1c0,0.4,0.2,0.6,0.6,0.6C47.7,14.8,48.2,14.8,48.8,14.8z"/>
	<path class="st0" d="M74.4,16.5c0.1-1.2,0.1-2.3,0.2-3.5c0.4-2.6,2-4,4.4-4.6C81,8,83,8,84.9,8.5c2.2,0.6,3.7,2.1,3.9,4.4
		c0.2,2.4,0.2,4.9,0,7.3c-0.3,2.6-2.1,4.1-4.9,4.6c-1.7,0.3-3.3,0.2-5-0.1c-2.6-0.6-4.3-2.6-4.5-5.3c-0.1-0.9,0-1.8,0-2.8
		C74.4,16.5,74.4,16.5,74.4,16.5z M84.2,16.6L84.2,16.6c0-0.8,0-1.6,0-2.3c-0.1-1.3-0.9-2.1-2.3-2.1c-1.5,0-2.5,0.6-2.6,2
		c-0.1,1.6-0.1,3.3,0,4.9c0.1,1.4,1,2,2.7,1.9c1.3-0.1,2.2-0.8,2.2-2.1C84.3,18.1,84.2,17.3,84.2,16.6z"/>
	<path class="st0" d="M91,16.5c0-1.1-0.1-2.3,0-3.3c0.4-2.6,2-4.2,4.6-4.8c1.8-0.4,3.5-0.4,5.3,0c2.5,0.6,4.2,2,4.4,4.6
		c0.2,2.3,0.3,4.7,0,7c-0.3,2.7-1.9,4.2-4.6,4.7c-1.9,0.4-3.9,0.4-5.8-0.2c-2.4-0.7-3.9-2.6-4-5.1C90.9,18.4,90.9,17.5,91,16.5
		L91,16.5z M100.8,16.5C100.7,16.5,100.7,16.5,100.8,16.5c-0.1-0.7,0-1.5-0.1-2.2c-0.1-1.4-0.9-2.2-2.3-2.2c-1.5-0.1-2.6,0.6-2.6,2
		c-0.1,1.7-0.1,3.4,0.1,5.1c0.1,1.2,1,1.8,2.4,1.8s2.2-0.6,2.4-1.7C100.7,18.3,100.7,17.4,100.8,16.5z"/>
	<path class="st0" d="M25.3,24.8c-1.1,0-2.2,0-3.3,0c-0.2,0-0.4,0-0.7,0c-0.1-0.2-0.1-0.3-0.1-0.4c0-0.6-0.3-0.7-0.8-0.4
		c-1.8,0.9-3.7,1.2-5.7,0.8c-1.7-0.4-3-1.7-3.2-3.5c-0.1-0.8-0.1-1.7,0-2.5c0.2-1.8,1.7-3,3.8-3.1c1.5-0.1,2.9-0.1,4.4-0.1
		c0.5,0,0.7-0.1,0.7-0.7c0-0.2,0-0.3,0-0.5c0-1.4-0.6-2-2-2c-1.5,0-3,0-4.4,0c-0.3,0-0.5,0-0.9,0c0.1-1.3,0.2-2.4,0.4-3.6
		c0-0.2,0.3-0.4,0.5-0.4c2.4,0,4.9,0,7.3,0.2c2.3,0.2,3.8,1.8,3.8,4.1c0.1,3.9,0.1,7.8,0.2,11.7C25.4,24.5,25.3,24.6,25.3,24.8z
		 M20.5,20c0-1.2,0-1.2-1-1.2c-0.6,0-1.2,0-1.7,0c-0.8,0-1.2,0.4-1.3,1.1c-0.1,0.8,0.3,1.6,1.1,1.6c0.7,0,1.3-0.1,2-0.3
		C20.2,21.1,20.7,20.7,20.5,20z"/>
	<path class="st0" d="M11.6,8.4c-0.1,1.2-0.3,2.3-0.4,3.4c0,0.4-0.2,0.6-0.7,0.6c-0.7,0-1.5,0-2.2,0c-0.5,0-0.7,0.2-0.7,0.7
		c0,3.1,0,6.1,0,9.2c0,0.7,0.1,1.4,0,2.1c0,0.2-0.3,0.5-0.5,0.5c-1.3,0-2.5,0-3.8,0C3,24.8,3,24.5,3,24.1c0-1.9,0-3.7,0-5.6
		c0-1.8,0-3.6,0-5.3c0-0.6-0.2-0.8-0.8-0.8c-1.8,0-1.8,0-1.8-1.8c0-0.7-0.2-1.5,0.1-1.9s1.2-0.2,1.8-0.3C2.8,8.3,3,8.1,3,7.6
		C3,6.4,2.9,5.2,3.1,4c0.4-2.3,1.8-3.6,4.2-3.7c1.3-0.1,2.6,0,3.9-0.1c0.4,0,0.6,0.2,0.5,0.6c0,1,0,1.9,0,2.9c0,0.4-0.2,0.6-0.6,0.5
		c-0.6,0-1.2,0-1.8,0c-1,0-1.4,0.5-1.4,1.5c0,0.6,0,1.2-0.1,1.7c0,0.7,0.2,1,0.9,0.9C9.6,8.3,10.6,8.4,11.6,8.4z"/>
	<path class="st0" d="M39.9,20.5c0,1.2,0,2.3,0,3.4c0,0.2-0.3,0.5-0.5,0.6c-2.3,0.5-4.7,0.8-7,0.3c-3-0.6-4.7-2.3-5-5.6
		c-0.2-2-0.1-4.1,0.1-6.1c0.3-2.7,2.5-4.5,5.4-4.9c2.2-0.3,4.3,0,6.4,0.4c0.5,0.1,0.6,0.3,0.6,0.8c0,0.8,0,1.7,0,2.5
		c0,0.6-0.2,0.7-0.8,0.6c-1.4-0.2-2.9-0.3-4.3-0.4c-1.8,0-2.5,0.7-2.5,2.6c0,1.3,0,2.7,0,4c0,1.5,0.7,2.2,2.2,2.2
		c1.6,0,3.2-0.2,4.9-0.3C39.4,20.6,39.6,20.5,39.9,20.5z"/>
</g>
</svg>
