<?xml version="1.0" encoding="utf-8"?>
<!-- Generator: Adobe Illustrator 19.2.1, SVG Export Plug-In . SVG Version: 6.00 Build 0)  -->
<svg version="1.1" id="Layer_1" xmlns="http://www.w3.org/2000/svg" xmlns:xlink="http://www.w3.org/1999/xlink" x="0px" y="0px"
	 viewBox="0 0 30.1 54.6" style="enable-background:new 0 0 30.1 54.6;" xml:space="preserve">
<style type="text/css">
	.st0{fill:url(#SVGID_1_);}
</style>
<linearGradient id="SVGID_1_" gradientUnits="userSpaceOnUse" x1="-1.5103" y1="8.409" x2="43.6563" y2="61.0757" gradientTransform="matrix(1 0 0 -1 0 56)">
	<stop  offset="0" style="stop-color:#F27BAA"/>
	<stop  offset="0.2046" style="stop-color:#F6967F"/>
	<stop  offset="0.4092" style="stop-color:#FBB03C"/>
	<stop  offset="0.4775" style="stop-color:#EB9D60"/>
	<stop  offset="0.6762" style="stop-color:#C86A91"/>
	<stop  offset="0.7637" style="stop-color:#B9539F"/>
	<stop  offset="0.8115" style="stop-color:#C7638C"/>
	<stop  offset="0.9048" style="stop-color:#DF7D63"/>
	<stop  offset="0.9696" style="stop-color:#EF8D38"/>
	<stop  offset="1" style="stop-color:#F79421"/>
</linearGradient>
<path class="st0" d="M25.6,4.2c0,2.6,0,5.3,0,7.9c-0.3,0-4.3,0-4.9,0c-1.4,0-2.1,0.7-2.2,2.1c0,0.6,0,1.1,0,1.7c0,1,0,2.1,0,3.2
	c2.5,0,4.9,0,7.3,0c0,0.2,0,0.4,0,0.5c-0.2,2.4-0.5,4.8-0.7,7.2c0,0.4-0.2,0.4-0.5,0.4l0,0c-0.9,0-1.7,0-2.6,0s-1.8,0-2.8,0
	c-0.2,0-0.4,0-0.7,0c0,7.7,0,15.3,0,23c-3.2,0-6.4,0-9.6,0c0-7.7,0-15.3,0-23c-0.2,0-0.3,0-0.5,0c-0.1,0-0.2,0-0.2,0
	c-1.3,0-2.6,0-3.8,0c0-2.7,0-5.4,0-8.1c1.5,0,3,0,4.6,0c0-1.3,0-2.6,0-3.9c0.1-1.3,0-2.7,0.3-4c0.8-3.6,2.9-6,6.6-6.8
	c0.5-0.1,1-0.2,1.4-0.2C20,4.2,22.8,4.2,25.6,4.2 M25.6,0.2h-8.4c-0.3,0-1.6,0.1-2.4,0.3c-5.1,1.1-8.4,4.7-9.5,9.9
	c-0.3,1.4-0.3,2.8-0.4,4c0,0.2,0,0.5,0,0.7l0,0H4.3c-2.2,0-4,1.8-4,4v8.1c0,2.2,1.8,4,3.9,4h0.6v19c0,2.2,1.8,4,4,4h9.6
	c2.2,0,4-1.8,4-4v-19c0.7,0,1.3,0,2,0c2.5,0,4.3-1.7,4.6-4.1c0.2-1.6,0.3-3.2,0.5-4.8l0.2-2.4c0-0.4,0-0.6,0-0.8V19
	c0-1.5-0.8-2.8-2.1-3.5c1.2-0.7,2-2,2-3.5V4.2C29.6,2,27.8,0.2,25.6,0.2L25.6,0.2z"/>
</svg>
