<?xml version="1.0" encoding="utf-8"?>
<!-- Generator: Adobe Illustrator 19.2.1, SVG Export Plug-In . SVG Version: 6.00 Build 0)  -->
<svg version="1.1" id="Layer_1" xmlns="http://www.w3.org/2000/svg" xmlns:xlink="http://www.w3.org/1999/xlink" x="0px" y="0px"
	 viewBox="0 0 55.1 55.4" style="enable-background:new 0 0 55.1 55.4;" xml:space="preserve">
<style type="text/css">
	.st0{fill:url(#SVGID_1_);}
	.st1{fill:url(#SVGID_2_);}
	.st2{fill:url(#SVGID_3_);}
</style>
<g>
	
		<linearGradient id="SVGID_1_" gradientUnits="userSpaceOnUse" x1="67.6684" y1="-6.6566" x2="-14.3316" y2="68.6767" gradientTransform="matrix(1 0 0 -1 0 58)">
		<stop  offset="0" style="stop-color:#F27BAA"/>
		<stop  offset="0.2046" style="stop-color:#F6967F"/>
		<stop  offset="0.4092" style="stop-color:#FBB03C"/>
		<stop  offset="0.4775" style="stop-color:#EB9D60"/>
		<stop  offset="0.6762" style="stop-color:#C86A91"/>
		<stop  offset="0.7637" style="stop-color:#B9539F"/>
		<stop  offset="0.8115" style="stop-color:#C7638C"/>
		<stop  offset="0.9048" style="stop-color:#DF7D63"/>
		<stop  offset="0.9696" style="stop-color:#EF8D38"/>
		<stop  offset="1" style="stop-color:#F79421"/>
	</linearGradient>
	<path class="st0" d="M0.4,36.8c0-6,0-12,0-18c0.1-1.5,0.3-2.9,0.4-4.4C1.3,7.6,6.2,2.3,12.9,1.3c1.9-0.3,3.5-0.5,5.7-0.6
		c6,0,12,0,18,0c1.5,0,2.3,0.1,3.7,0.3c8.2,0.7,13.8,6.3,14,14.5c0.2,6.2,0.2,12.4,0.2,18.6c0,2.6-0.1,5.1-0.4,7.7
		c-0.9,5.9-4,10.1-9.8,11.8c-2.6,0.8-5.5,1-8.2,1.1c-5,0.2-10.1,0.1-15.2,0c-2.4,0-4.8-0.1-7.2-0.4C6.8,53.6,2.1,49,1,42.3
		C0.7,40.5,0.5,38.8,0.4,36.8z M5.2,27.8c0.1,4.1,0.2,8.2,0.4,12.4c0.3,5.2,3.7,8.9,8.9,9.4c3.3,0.3,6.6,0.4,9.9,0.4
		c5.4,0,10.9-0.1,16.3-0.4c4.4-0.3,7.5-3.2,8.4-7.5c0.4-2.2,0.6-4.5,0.6-6.8c0-6.4,0-12.8-0.2-19.2c-0.1-3.1-1-5.9-3.5-8
		c-2.3-2-5.1-2.5-8-2.5c-7.6,0-15.2,0-22.8,0.2c-5.6,0.2-9.3,4-9.6,9.6C5.4,19.5,5.3,23.7,5.2,27.8z"/>
	
		<linearGradient id="SVGID_2_" gradientUnits="userSpaceOnUse" x1="67.6748" y1="-6.6496" x2="-14.3252" y2="68.6837" gradientTransform="matrix(1 0 0 -1 0 58)">
		<stop  offset="0" style="stop-color:#F27BAA"/>
		<stop  offset="0.2046" style="stop-color:#F6967F"/>
		<stop  offset="0.4092" style="stop-color:#FBB03C"/>
		<stop  offset="0.4775" style="stop-color:#EB9D60"/>
		<stop  offset="0.6762" style="stop-color:#C86A91"/>
		<stop  offset="0.7637" style="stop-color:#B9539F"/>
		<stop  offset="0.8115" style="stop-color:#C7638C"/>
		<stop  offset="0.9048" style="stop-color:#DF7D63"/>
		<stop  offset="0.9696" style="stop-color:#EF8D38"/>
		<stop  offset="1" style="stop-color:#F79421"/>
	</linearGradient>
	<path class="st1" d="M41.4,27.8c0,7.7-6.2,13.8-13.9,13.8s-13.9-6.2-13.9-13.8c0-7.7,6.2-14,14-14C35.2,13.9,41.4,20.1,41.4,27.8z
		 M18.5,27.7c0,4.9,3.9,9.1,8.8,9.1c5,0,9.2-3.9,9.3-8.8c0-5.1-3.9-9.2-8.9-9.3C22.6,18.7,18.5,22.6,18.5,27.7z"/>
	
		<linearGradient id="SVGID_3_" gradientUnits="userSpaceOnUse" x1="81.4833" y1="8.3808" x2="-0.5167" y2="83.7142" gradientTransform="matrix(1 0 0 -1 0 58)">
		<stop  offset="0" style="stop-color:#F27BAA"/>
		<stop  offset="0.2046" style="stop-color:#F6967F"/>
		<stop  offset="0.4092" style="stop-color:#FBB03C"/>
		<stop  offset="0.4775" style="stop-color:#EB9D60"/>
		<stop  offset="0.6762" style="stop-color:#C86A91"/>
		<stop  offset="0.7637" style="stop-color:#B9539F"/>
		<stop  offset="0.8115" style="stop-color:#C7638C"/>
		<stop  offset="0.9048" style="stop-color:#DF7D63"/>
		<stop  offset="0.9696" style="stop-color:#EF8D38"/>
		<stop  offset="1" style="stop-color:#F79421"/>
	</linearGradient>
	<path class="st2" d="M41.9,16.5c-1.8,0-3.2-1.4-3.2-3.2s1.4-3.2,3.3-3.2c1.8,0,3.2,1.4,3.2,3.2S43.8,16.5,41.9,16.5z"/>
</g>
</svg>
