<?xml version="1.0" encoding="utf-8"?>
<!-- Generator: Adobe Illustrator 19.2.1, SVG Export Plug-In . SVG Version: 6.00 Build 0)  -->
<svg version="1.1" id="Layer_1" xmlns="http://www.w3.org/2000/svg" xmlns:xlink="http://www.w3.org/1999/xlink" x="0px" y="0px"
	 viewBox="0 0 553.6 351.2" style="enable-background:new 0 0 553.6 351.2;" xml:space="preserve">
<style type="text/css">
	.st0{fill:#FFFFFF;}
</style>
<g>
	<g>
		<g>
			<g>
				<g>
					<polygon class="st0" points="147.7,349.2 192.8,349.2 147.7,195 					"/>
					<polygon class="st0" points="192.8,2.2 147.7,2.2 147.7,156.6 					"/>
					<polygon class="st0" points="412.7,2.2 372.5,2.2 412.7,203.5 					"/>
					<polygon class="st0" points="238.2,2.2 182.2,175.7 238.2,349.2 256.2,349.2 256.2,2.2 					"/>
					<polygon class="st0" points="370.9,349.2 409.6,349.2 370.9,154.3 					"/>
					<rect x="298.6" y="2.2" class="st0" width="31.5" height="347"/>
				</g>
				<rect x="62.8" y="2.2" class="st0" width="42.4" height="347"/>
				<rect x="448.9" y="2.2" class="st0" width="42.4" height="347"/>
			</g>
		</g>
		<g>
			<path class="st0" d="M530.3,41.4c-5.5,0-10.1-1.9-13.8-5.7c-3.8-3.8-5.7-8.4-5.7-13.8v-0.1c0-5.4,1.9-9.9,5.7-13.8
				c3.8-3.8,8.4-5.8,13.8-5.8c5.5,0,10.1,1.9,13.8,5.7s5.6,8.4,5.6,13.7v0.1c0,5.4-1.9,10-5.7,13.8S535.7,41.4,530.3,41.4z
				 M530.3,39.2c4.8,0,8.9-1.7,12.2-5.1s5-7.5,5-12.3v-0.1c0-4.8-1.6-8.9-4.9-12.3c-3.3-3.4-7.4-5.1-12.3-5.1
				c-4.8,0-8.9,1.7-12.3,5.1c-3.3,3.4-5,7.5-5,12.3v0.1c0,4.8,1.7,8.9,5,12.3C521.3,37.6,525.4,39.2,530.3,39.2z M521.7,31.8V11.2
				h9.8c2.6,0,4.7,0.6,6.3,1.7s2.3,2.9,2.3,5.2c0,1.6-0.4,2.9-1.1,4c-0.8,1.1-1.8,1.9-3.1,2.5l4.9,7.2h-6.7l-4.1-6.2h-2.5v6.2H521.7
				z M527.6,21h3.7c1,0,1.8-0.2,2.3-0.7c0.6-0.4,0.8-1,0.8-1.8c0-1.6-1.1-2.5-3.2-2.5h-3.7v5H527.6z"/>
		</g>
	</g>
</g>
</svg>
